<?xml version="1.0" encoding="UTF-8" standalone="no"?>
<svg
   xmlns:dc="http://purl.org/dc/elements/1.1/"
   xmlns:cc="http://creativecommons.org/ns#"
   xmlns:rdf="http://www.w3.org/1999/02/22-rdf-syntax-ns#"
   xmlns:svg="http://www.w3.org/2000/svg"
   xmlns="http://www.w3.org/2000/svg"
   xmlns:sodipodi="http://sodipodi.sourceforge.net/DTD/sodipodi-0.dtd"
   xmlns:inkscape="http://www.inkscape.org/namespaces/inkscape"
   version="1.1"
   id="Capa_1"
   x="0px"
   y="0px"
   viewBox="0 0 1200 400"
   xml:space="preserve"
   sodipodi:docname="cyber attack preventions.svg"
   width="1200"
   height="400"
   inkscape:version="1.0.1 (3bc2e813f5, 2020-09-07)"><metadata
   id="metadata77"><rdf:RDF><cc:Work
       rdf:about=""><dc:format>image/svg+xml</dc:format><dc:type
         rdf:resource="http://purl.org/dc/dcmitype/StillImage" /><dc:title></dc:title></cc:Work></rdf:RDF></metadata><defs
   id="defs75">
	

		
		
	<pattern
   id="EMFhbasepattern"
   patternUnits="userSpaceOnUse"
   width="6"
   height="6"
   x="0"
   y="0" /><pattern
   id="EMFhbasepattern-3"
   patternUnits="userSpaceOnUse"
   width="6"
   height="6"
   x="0"
   y="0" /><pattern
   id="EMFhbasepattern-4"
   patternUnits="userSpaceOnUse"
   width="6"
   height="6"
   x="0"
   y="0" /></defs><sodipodi:namedview
   pagecolor="#ffffff"
   bordercolor="#666666"
   borderopacity="1"
   objecttolerance="10"
   gridtolerance="10"
   guidetolerance="10"
   inkscape:pageopacity="0"
   inkscape:pageshadow="2"
   inkscape:window-width="1920"
   inkscape:window-height="1017"
   id="namedview73"
   showgrid="false"
   inkscape:snap-page="true"
   inkscape:zoom="1"
   inkscape:cx="725.08106"
   inkscape:cy="263.71992"
   inkscape:window-x="-8"
   inkscape:window-y="-8"
   inkscape:window-maximized="1"
   inkscape:current-layer="Capa_1" />

<g
   id="g42">
</g>
<g
   id="g44">
</g>
<g
   id="g46">
</g>
<g
   id="g48">
</g>
<g
   id="g50">
</g>
<g
   id="g52">
</g>
<g
   id="g54">
</g>
<g
   id="g56">
</g>
<g
   id="g58">
</g>
<g
   id="g60">
</g>
<g
   id="g62">
</g>
<g
   id="g64">
</g>
<g
   id="g66">
</g>
<g
   id="g68">
</g>
<g
   id="g70">
</g>
<g
   id="g735"
   transform="translate(-1734.0742,-195.69373)">
</g><g
   id="g737"
   transform="translate(-1734.0742,-195.69373)">
</g><g
   id="g739"
   transform="translate(-1734.0742,-195.69373)">
</g><g
   id="g741"
   transform="translate(-1734.0742,-195.69373)">
</g><g
   id="g743"
   transform="translate(-1734.0742,-195.69373)">
</g><g
   id="g745"
   transform="translate(-1734.0742,-195.69373)">
</g><g
   id="g747"
   transform="translate(-1734.0742,-195.69373)">
</g><g
   id="g749"
   transform="translate(-1734.0742,-195.69373)">
</g><g
   id="g751"
   transform="translate(-1734.0742,-195.69373)">
</g><g
   id="g753"
   transform="translate(-1734.0742,-195.69373)">
</g><g
   id="g755"
   transform="translate(-1734.0742,-195.69373)">
</g><g
   id="g757"
   transform="translate(-1734.0742,-195.69373)">
</g><g
   id="g759"
   transform="translate(-1734.0742,-195.69373)">
</g><g
   id="g761"
   transform="translate(-1734.0742,-195.69373)">
</g><g
   id="g763"
   transform="translate(-1734.0742,-195.69373)">
</g><g
   id="g2663"
   inkscape:export-xdpi="96"
   inkscape:export-ydpi="96"><rect
     style="fill:#1f6fec;fill-opacity:1;fill-rule:evenodd"
     id="rect1876"
     width="1200"
     height="400"
     x="0"
     y="0" /><g
     id="g2197"
     transform="translate(19.99994)"><g
       id="g40"
       transform="matrix(0.13482507,0,0,0.13482507,984.9746,298.54668)"
       style="fill:#ffffff;stroke:#ffffff">
	<g
   id="g38"
   style="fill:#ffffff;stroke:#ffffff">
		<g
   id="g36"
   style="fill:#ffffff;stroke:#ffffff">
			<path
   d="m 146.55,156.6 h 80.5 V 67.2 c -32.6,5.8 -61.8,40 -80.5,89.4 z"
   id="path2"
   style="fill:#ffffff;stroke:#ffffff" />
			<path
   d="m 125.95,269 h 101.5 v -92.9 h -87.5 c -8.1,28 -13.2,59.5 -14,92.9 z"
   id="path4"
   style="fill:#ffffff;stroke:#ffffff" />
			<path
   d="m 139.95,381 h 87.1 v -92.6 h -101.1 c 0.8,33.1 5.9,65 14,92.6 z"
   id="path6"
   style="fill:#ffffff;stroke:#ffffff" />
			<path
   d="m 227.05,489.9 v -89.4 h -80.5 c 18.7,49.4 47.9,83.6 80.5,89.4 z"
   id="path8"
   style="fill:#ffffff;stroke:#ffffff" />
			<path
   d="m 354.65,381 h 68.1 c 15.6,-27.6 24.9,-59.1 26.1,-92.9 h -80.9 c -0.9,33.8 -5.5,64.9 -13.3,92.9 z"
   id="path10"
   style="fill:#ffffff;stroke:#ffffff" />
			<path
   d="m 348.45,288.5 h -101.5 v 92.6 h 87.1 c 8.2,-27.7 13.2,-59.6 14.4,-92.6 z"
   id="path12"
   style="fill:#ffffff;stroke:#ffffff" />
			<path
   d="m 106.15,288.5 h -81.3 c 1.6,33.4 10.9,64.9 26.1,92.9 h 68 c -7.4,-28.4 -12,-59.5 -12.8,-92.9 z"
   id="path14"
   style="fill:#ffffff;stroke:#ffffff" />
			<path
   d="m 119.35,176.1 h -68 c -15.6,27.6 -24.9,59.1 -26.1,92.9 h 81.3 c 0.4,-33.4 5,-64.9 12.8,-92.9 z"
   id="path16"
   style="fill:#ffffff;stroke:#ffffff" />
			<path
   d="m 302.15,480.6 c 44.3,-14.4 82.4,-42.8 108.5,-80.1 h -61.8 c -11.3,33.4 -27.6,61 -46.7,80.1 z"
   id="path18"
   style="fill:#ffffff;stroke:#ffffff" />
			<path
   d="m 445.25,237.9 h -79.3 c 1.2,10.1 1.6,20.6 1.9,31.1 h 81.3 c -0.8,-10.5 -1.9,-21 -3.9,-31.1 z"
   id="path20"
   style="fill:#ffffff;stroke:#ffffff" />
			<path
   d="m 63.35,400.5 c 26.4,37.3 64.2,65.7 108.5,80.1 -19.4,-19.1 -35.4,-46.7 -46.7,-80.1 z"
   id="path22"
   style="fill:#ffffff;stroke:#ffffff" />
			<path
   d="m 346.05,237.9 h -59.1 c -5.4,0 -9.7,-4.3 -9.7,-9.7 v -52.1 h -30.3 V 269 h 101.5 c -0.4,-10.5 -1.2,-21 -2.4,-31.1 z"
   id="path24"
   style="fill:#ffffff;stroke:#ffffff" />
			<path
   d="m 172.25,76.5 c -44.3,14.4 -82.4,42.8 -108.5,80.1 h 61.8 c 11.3,-33.4 27.3,-60.6 46.7,-80.1 z"
   id="path26"
   style="fill:#ffffff;stroke:#ffffff" />
			<path
   d="m 246.95,400.5 v 89.4 c 32.7,-5.8 62.2,-40.1 80.5,-89.4 z"
   id="path28"
   style="fill:#ffffff;stroke:#ffffff" />
			<g
   id="g32"
   style="fill:#ffffff;stroke:#ffffff">
				<path
   d="m 281.45,84.7 c -9.7,-8.3 -21.3,-15.2 -35,-17.5 v 89.4 h 29.9 V 84.7 Z"
   id="path30"
   style="fill:#ffffff;stroke:#ffffff" />
			</g>
			<path
   d="M 453.05,105.7 V 71.9 c 0,-39.7 -32.3,-71.9 -71.9,-71.9 -39.6,0 -71.6,32.3 -71.6,71.9 v 33.8 h -12.1 v 110.8 h 167.6 V 105.7 Z M 332.85,71.9 c 0,-26.8 21.8,-48.6 48.2,-48.6 26.4,0 48.6,21.8 48.6,48.6 v 33.8 h -96.8 z"
   id="path34"
   style="fill:#ffffff;stroke:#ffffff" />
		</g>
	</g>
</g><circle
       style="fill:none;fill-opacity:1;fill-rule:evenodd;stroke:#ffffff;stroke-width:3;stroke-linejoin:round;stroke-miterlimit:4;stroke-dasharray:none;paint-order:stroke fill markers"
       id="circle1654"
       cx="1020"
       cy="331.57208"
       r="40.927944" /><g
       id="g374"
       transform="matrix(0.17701799,0,0,0.17701799,993.48334,21.56792)"
       style="fill:#ffffff;stroke:#ffffff"><g
         id="g313"
         style="fill:#ffffff;stroke:#ffffff">
	<g
   id="g311"
   style="fill:#ffffff;stroke:#ffffff">
		<g
   id="g309"
   style="fill:#ffffff;stroke:#ffffff">
			<path
   d="M 242.974,139.731 H 43.02 c -4.059,0 -7.35,3.291 -7.35,7.35 0,4.06 3.291,7.35 7.35,7.35 h 199.954 c 4.06,0 7.35,-3.291 7.35,-7.35 0,-4.059 -3.29,-7.35 -7.35,-7.35 z"
   id="path301"
   style="fill:#ffffff;stroke:#ffffff" />
			<path
   d="M 197.45,173.151 H 43.02 c -4.059,0 -7.35,3.291 -7.35,7.35 0,4.059 3.291,7.35 7.35,7.35 h 154.43 c 4.06,0 7.35,-3.291 7.35,-7.35 0,-4.06 -3.289,-7.35 -7.35,-7.35 z"
   id="path303"
   style="fill:#ffffff;stroke:#ffffff" />
			<path
   d="m 94.881,116.246 h 96.231 c 4.06,0 7.35,-3.291 7.35,-7.35 V 59.073 c 0,-4.059 -3.29,-7.35 -7.35,-7.35 H 94.881 c -4.059,0 -7.35,3.291 -7.35,7.35 v 49.822 c 0,4.06 3.291,7.351 7.35,7.351 z m 7.35,-49.823 h 81.531 v 35.122 h -81.531 z"
   id="path305"
   style="fill:#ffffff;stroke:#ffffff" />
			<path
   d="M 285.993,170.54 V 23.24 c 0,-4.059 -3.29,-7.35 -7.35,-7.35 H 7.35 C 3.291,15.89 0,19.181 0,23.24 v 194.839 c 0,4.059 3.291,7.35 7.35,7.35 h 217.81 c 1.048,1.427 2.187,2.781 3.406,4.061 v 46.86 c 0,6.552 7.948,9.794 12.548,5.197 l 17.275,-17.276 17.276,17.276 c 4.613,4.611 12.548,1.347 12.548,-5.197 v -46.86 c 15.964,-16.765 15.051,-43.336 -2.22,-58.95 z m -67.667,40.188 H 14.7 V 30.59 h 256.593 v 131.36 c -30.505,-10.042 -60.534,17.387 -52.967,48.778 z m 55.186,47.876 -9.926,-9.926 c -2.869,-2.868 -7.523,-2.87 -10.395,0 l -9.925,9.925 v -19.172 c 9.664,3.815 20.575,3.816 30.247,0 v 19.173 z m -15.123,-30.997 c -14.688,0 -26.504,-11.985 -26.504,-26.505 0,-14.612 11.887,-26.504 26.504,-26.504 14.645,0 26.505,11.929 26.505,26.504 -0.001,14.645 -11.921,26.505 -26.505,26.505 z"
   id="path307"
   style="fill:#ffffff;stroke:#ffffff" />
		</g>
	</g>
</g><g
         id="g315"
         style="fill:#ffffff;stroke:#ffffff">
</g><g
         id="g317"
         style="fill:#ffffff;stroke:#ffffff">
</g><g
         id="g319"
         style="fill:#ffffff;stroke:#ffffff">
</g><g
         id="g321"
         style="fill:#ffffff;stroke:#ffffff">
</g><g
         id="g323"
         style="fill:#ffffff;stroke:#ffffff">
</g><g
         id="g325"
         style="fill:#ffffff;stroke:#ffffff">
</g><g
         id="g327"
         style="fill:#ffffff;stroke:#ffffff">
</g><g
         id="g329"
         style="fill:#ffffff;stroke:#ffffff">
</g><g
         id="g331"
         style="fill:#ffffff;stroke:#ffffff">
</g><g
         id="g333"
         style="fill:#ffffff;stroke:#ffffff">
</g><g
         id="g335"
         style="fill:#ffffff;stroke:#ffffff">
</g><g
         id="g337"
         style="fill:#ffffff;stroke:#ffffff">
</g><g
         id="g339"
         style="fill:#ffffff;stroke:#ffffff">
</g><g
         id="g341"
         style="fill:#ffffff;stroke:#ffffff">
</g><g
         id="g343"
         style="fill:#ffffff;stroke:#ffffff">
</g></g><circle
       style="fill:none;fill-opacity:1;fill-rule:evenodd;stroke:#ffffff;stroke-width:3;stroke-linejoin:round;stroke-miterlimit:4;stroke-dasharray:none;paint-order:stroke fill markers"
       id="circle1656"
       cx="1020.0001"
       cy="48.084782"
       r="40.927944" /><g
       id="g173"
       transform="matrix(0.15139177,0,0,0.15139177,984.81118,154.63953)"
       style="fill:#ffffff;stroke:#ffffff"><g
         id="g105"
         style="fill:#ffffff;stroke:#ffffff">
	<path
   d="M 410.66,252.471 H 137.918 c -29.892,0 -54.211,24.319 -54.211,54.211 0,29.892 24.319,54.211 54.211,54.211 H 410.66 c 29.892,0 54.211,-24.319 54.211,-54.211 0,-29.892 -24.319,-54.211 -54.211,-54.211 z m 0,93.422 H 137.918 c -21.621,0 -39.211,-17.59 -39.211,-39.211 0,-21.621 17.59,-39.211 39.211,-39.211 H 410.66 c 21.621,0 39.211,17.59 39.211,39.211 0,21.621 -17.59,39.211 -39.211,39.211 z"
   id="path79"
   style="fill:#ffffff;stroke:#ffffff" />
	<path
   d="m 175.964,292.369 c -2.071,-3.588 -6.66,-4.817 -10.245,-2.745 l -8.021,4.631 v -9.261 c 0,-4.142 -3.357,-7.5 -7.5,-7.5 -4.143,0 -7.5,3.358 -7.5,7.5 v 9.261 l -8.021,-4.631 c -3.589,-2.072 -8.175,-0.843 -10.245,2.745 -2.071,3.587 -0.842,8.174 2.745,10.245 l 8.021,4.631 -8.021,4.631 c -3.587,2.071 -4.816,6.658 -2.745,10.245 1.39,2.406 3.91,3.751 6.502,3.751 1.272,0 2.563,-0.324 3.743,-1.006 l 8.021,-4.631 v 9.261 c 0,4.142 3.357,7.5 7.5,7.5 4.143,0 7.5,-3.358 7.5,-7.5 v -9.261 l 8.021,4.631 c 1.182,0.682 2.471,1.006 3.743,1.006 2.592,0 5.113,-1.345 6.502,-3.751 2.071,-3.587 0.842,-8.174 -2.745,-10.245 l -8.021,-4.631 8.021,-4.631 c 3.587,-2.071 4.816,-6.658 2.745,-10.245 z"
   id="path81"
   style="fill:#ffffff;stroke:#ffffff" />
	<path
   d="m 245.73,292.369 c -2.07,-3.588 -6.66,-4.817 -10.245,-2.745 l -8.021,4.631 v -9.262 c 0,-4.142 -3.357,-7.5 -7.5,-7.5 -4.143,0 -7.5,3.358 -7.5,7.5 v 9.261 l -8.021,-4.631 c -3.59,-2.072 -8.176,-0.842 -10.245,2.745 -2.071,3.587 -0.842,8.174 2.745,10.245 l 8.021,4.631 -8.021,4.631 c -3.587,2.071 -4.816,6.658 -2.745,10.245 1.389,2.406 3.91,3.751 6.502,3.751 1.272,0 2.563,-0.324 3.743,-1.006 l 8.021,-4.631 v 9.261 c 0,4.142 3.357,7.5 7.5,7.5 4.143,0 7.5,-3.358 7.5,-7.5 v -9.262 l 8.021,4.631 c 1.182,0.682 2.471,1.006 3.743,1.006 2.592,0 5.113,-1.346 6.502,-3.751 2.071,-3.587 0.842,-8.174 -2.745,-10.245 l -8.021,-4.631 8.021,-4.631 c 3.587,-2.068 4.816,-6.655 2.745,-10.243 z"
   id="path83"
   style="fill:#ffffff;stroke:#ffffff" />
	<path
   d="m 315.494,292.369 c -2.07,-3.588 -6.659,-4.817 -10.245,-2.745 l -8.021,4.631 v -9.262 c 0,-4.142 -3.357,-7.5 -7.5,-7.5 -4.143,0 -7.5,3.358 -7.5,7.5 v 9.261 l -8.021,-4.631 c -3.59,-2.072 -8.175,-0.842 -10.245,2.745 -2.071,3.587 -0.842,8.174 2.745,10.245 l 8.021,4.631 -8.021,4.631 c -3.587,2.071 -4.816,6.658 -2.745,10.245 1.389,2.406 3.91,3.751 6.502,3.751 1.272,0 2.563,-0.324 3.743,-1.006 l 8.021,-4.631 v 9.261 c 0,4.142 3.357,7.5 7.5,7.5 4.143,0 7.5,-3.358 7.5,-7.5 v -9.262 l 8.021,4.631 c 1.182,0.682 2.471,1.006 3.743,1.006 2.592,0 5.113,-1.346 6.502,-3.751 2.071,-3.587 0.842,-8.174 -2.745,-10.245 l -8.021,-4.631 8.021,-4.631 c 3.587,-2.068 4.817,-6.655 2.745,-10.243 z"
   id="path85"
   style="fill:#ffffff;stroke:#ffffff" />
	<path
   d="m 385.259,292.369 c -2.07,-3.588 -6.659,-4.817 -10.245,-2.745 l -8.021,4.631 v -9.261 c 0,-4.142 -3.357,-7.5 -7.5,-7.5 -4.143,0 -7.5,3.358 -7.5,7.5 v 9.262 l -8.021,-4.631 c -3.589,-2.072 -8.175,-0.842 -10.245,2.745 -2.071,3.587 -0.842,8.174 2.745,10.245 l 8.021,4.631 -8.021,4.631 c -3.587,2.071 -4.816,6.658 -2.745,10.245 1.389,2.406 3.91,3.751 6.502,3.751 1.272,0 2.563,-0.324 3.743,-1.006 l 8.021,-4.631 v 9.262 c 0,4.142 3.357,7.5 7.5,7.5 4.143,0 7.5,-3.358 7.5,-7.5 v -9.261 l 8.021,4.631 c 1.182,0.682 2.471,1.006 3.743,1.006 2.592,0 5.113,-1.346 6.502,-3.751 2.071,-3.587 0.842,-8.174 -2.745,-10.245 l -8.021,-4.631 8.021,-4.631 c 3.587,-2.072 4.816,-6.659 2.745,-10.247 z"
   id="path87"
   style="fill:#ffffff;stroke:#ffffff" />
	<path
   d="m 58.58,292.421 h -0.307 v -6.32 c 0,-13.771 -11.204,-24.976 -24.976,-24.976 -13.772,0 -24.974,11.205 -24.974,24.976 v 6.32 H 8.016 c -4.143,0 -7.5,3.358 -7.5,7.5 v 44.817 c 0,4.142 3.357,7.5 7.5,7.5 H 58.58 c 4.143,0 7.5,-3.358 7.5,-7.5 v -44.817 c 0,-4.142 -3.357,-7.5 -7.5,-7.5 z m -35.257,-6.32 c 0,-5.5 4.475,-9.976 9.976,-9.976 5.501,0 9.976,4.475 9.976,9.976 v 6.32 H 23.323 Z M 51.08,337.238 H 15.516 V 307.421 H 51.08 Z"
   id="path89"
   style="fill:#ffffff;stroke:#ffffff" />
	<path
   d="M 137.918,212.401 H 410.66 c 29.892,0 54.211,-24.319 54.211,-54.211 0,-29.892 -24.319,-54.211 -54.211,-54.211 H 137.918 c -29.892,0 -54.211,24.319 -54.211,54.211 0,29.892 24.32,54.211 54.211,54.211 z m 0,-93.422 H 410.66 c 21.621,0 39.211,17.59 39.211,39.211 0,21.621 -17.59,39.211 -39.211,39.211 H 137.918 c -21.621,0 -39.211,-17.59 -39.211,-39.211 0,-21.621 17.59,-39.211 39.211,-39.211 z"
   id="path91"
   style="fill:#ffffff;stroke:#ffffff" />
	<path
   d="m 7.5,196.943 h 50.564 c 4.143,0 7.5,-3.358 7.5,-7.5 v -3.156 c 0,-11.072 -5.523,-20.873 -13.952,-26.811 3.558,-4.259 5.704,-9.736 5.704,-15.706 0,-13.528 -11.006,-24.533 -24.534,-24.533 -13.527,0 -24.533,11.005 -24.533,24.533 0,5.97 2.146,11.447 5.704,15.706 C 5.523,165.414 0,175.214 0,186.287 v 3.156 c 0,4.142 3.357,7.5 7.5,7.5 z m 25.282,-62.706 c 5.257,0 9.534,4.276 9.534,9.533 0,5.257 -4.277,9.534 -9.534,9.534 -5.257,0 -9.533,-4.277 -9.533,-9.534 0,-5.257 4.276,-9.533 9.533,-9.533 z m 0,34.267 c 8.308,0 15.303,5.727 17.246,13.439 H 15.536 c 1.943,-7.712 8.939,-13.439 17.246,-13.439 z"
   id="path93"
   style="fill:#ffffff;stroke:#ffffff" />
	<path
   d="m 141.166,179.706 h 22 c 4.143,0 7.5,-3.358 7.5,-7.5 0,-4.142 -3.357,-7.5 -7.5,-7.5 h -14.5 v -23.5 c 0,-4.142 -3.357,-7.5 -7.5,-7.5 -4.143,0 -7.5,3.358 -7.5,7.5 v 31 c 0,4.142 3.358,7.5 7.5,7.5 z"
   id="path95"
   style="fill:#ffffff;stroke:#ffffff" />
	<path
   d="m 289.766,179.706 c 4.143,0 7.5,-3.358 7.5,-7.5 v -31 c 0,-4.142 -3.357,-7.5 -7.5,-7.5 -4.143,0 -7.5,3.358 -7.5,7.5 v 31 c 0,4.142 3.357,7.5 7.5,7.5 z"
   id="path97"
   style="fill:#ffffff;stroke:#ffffff" />
	<path
   d="m 316.766,179.706 c 4.143,0 7.5,-3.358 7.5,-7.5 V 159.74 l 17.11,17.681 c 1.441,1.489 3.397,2.285 5.392,2.285 0.945,0 1.899,-0.179 2.812,-0.548 2.832,-1.146 4.687,-3.896 4.687,-6.952 v -31 c 0,-4.142 -3.357,-7.5 -7.5,-7.5 -4.143,0 -7.5,3.358 -7.5,7.5 v 12.465 l -17.11,-17.681 c -2.125,-2.195 -5.368,-2.885 -8.203,-1.736 -2.832,1.146 -4.687,3.896 -4.687,6.952 v 31 c -10e-4,4.142 3.356,7.5 7.499,7.5 z"
   id="path99"
   style="fill:#ffffff;stroke:#ffffff" />
	<path
   d="m 199.731,179.706 c 12.683,0 23,-10.318 23,-23 0,-12.682 -10.317,-23 -23,-23 -12.683,0 -23,10.318 -23,23 0,12.682 10.317,23 23,23 z m 0,-31 c 4.411,0 8,3.589 8,8 0,4.411 -3.589,8 -8,8 -4.411,0 -8,-3.589 -8,-8 0,-4.411 3.589,-8 8,-8 z"
   id="path101"
   style="fill:#ffffff;stroke:#ffffff" />
	<path
   d="m 256.338,179.435 v 3.771 c 0,4.142 3.357,7.5 7.5,7.5 4.143,0 7.5,-3.358 7.5,-7.5 v -15.54 c 0,-3.033 -1.827,-5.768 -4.63,-6.929 -2.803,-1.161 -6.028,-0.519 -8.173,1.625 -3.119,3.119 -8.193,3.12 -11.314,0 -3.119,-3.119 -3.119,-8.195 -0.001,-11.313 3.121,-3.118 8.194,-3.12 11.315,0 2.928,2.929 7.677,2.928 10.606,0 2.929,-2.929 2.929,-7.678 -0.001,-10.607 -8.967,-8.967 -23.559,-8.965 -32.527,0 -8.967,8.968 -8.967,23.559 0.001,32.527 5.365,5.365 12.745,7.518 19.724,6.466 z"
   id="path103"
   style="fill:#ffffff;stroke:#ffffff" />
</g><g
         id="g107"
         style="fill:#ffffff;stroke:#ffffff">
</g><g
         id="g109"
         style="fill:#ffffff;stroke:#ffffff">
</g><g
         id="g111"
         style="fill:#ffffff;stroke:#ffffff">
</g><g
         id="g113"
         style="fill:#ffffff;stroke:#ffffff">
</g><g
         id="g115"
         style="fill:#ffffff;stroke:#ffffff">
</g><g
         id="g117"
         style="fill:#ffffff;stroke:#ffffff">
</g><g
         id="g119"
         style="fill:#ffffff;stroke:#ffffff">
</g><g
         id="g121"
         style="fill:#ffffff;stroke:#ffffff">
</g><g
         id="g123"
         style="fill:#ffffff;stroke:#ffffff">
</g><g
         id="g125"
         style="fill:#ffffff;stroke:#ffffff">
</g><g
         id="g127"
         style="fill:#ffffff;stroke:#ffffff">
</g><g
         id="g129"
         style="fill:#ffffff;stroke:#ffffff">
</g><g
         id="g131"
         style="fill:#ffffff;stroke:#ffffff">
</g><g
         id="g133"
         style="fill:#ffffff;stroke:#ffffff">
</g><g
         id="g135"
         style="fill:#ffffff;stroke:#ffffff">
</g></g><circle
       style="fill:none;fill-opacity:1;fill-rule:evenodd;stroke:#ffffff;stroke-width:3;stroke-linejoin:round;stroke-miterlimit:4;stroke-dasharray:none;paint-order:stroke fill markers"
       id="circle1658"
       cx="1020"
       cy="189.82843"
       r="40.927944" /></g><text
     xml:space="preserve"
     style="font-style:normal;font-variant:normal;font-weight:300;font-size:18px;line-height:125%;font-family:'Calibri Light';text-align:start;letter-spacing:0px;word-spacing:0px;text-anchor:start;fill:#000000;fill-opacity:1;stroke:none"
     x="32.794189"
     y="115.33356"
     id="text2304"><tspan
       sodipodi:role="line"
       x="32.794189"
       y="115.33356"
       id="tspan2302"
       style="font-style:normal;font-variant:normal;font-weight:bold;font-stretch:normal;font-size:18px;font-family:Calibri;-inkscape-font-specification:'Calibri Bold';fill:#ffffff"><tspan
         dx="0 0 0 0 0 0 0 0 0 0 0 0 0 0 0 0 0 0 0 0 0 0 0 0 0 0 0 0 0 0 0 0 2.8686149"
         dy="0 0 0 0 0 0 0 0 0 0 0 0 0 0 0 0 0 0 0 0 0 0 0 0 0 0 0 0 0 0 0 0 0"
         style="font-style:normal;font-variant:normal;font-weight:bold;font-stretch:normal;font-size:18px;font-family:Calibri;-inkscape-font-specification:'Calibri Bold';fill:#ffffff"
         id="tspan2294">Use Scanning and Detection Tools </tspan></tspan></text><text
     xml:space="preserve"
     style="font-style:normal;font-variant:normal;font-weight:300;font-size:18px;line-height:125%;font-family:'Calibri Light';text-align:start;letter-spacing:0px;word-spacing:0px;text-anchor:start;fill:#000000;fill-opacity:1;stroke:none"
     x="103.6665"
     y="253.33356"
     id="text2323"><tspan
       sodipodi:role="line"
       x="103.6665"
       y="253.33356"
       id="tspan2321"
       style="font-style:normal;font-variant:normal;font-weight:bold;font-stretch:normal;font-size:18px;font-family:Calibri;-inkscape-font-specification:'Calibri Bold';fill:#ffffff"><tspan
         dx="0 0 0 0 0 0 0 0 0 0 0 0 0 0"
         dy="0 0 0 0 0 0 0 0 0 0 0 0 0 0"
         style="font-style:normal;font-variant:normal;font-weight:bold;font-stretch:normal;font-size:18px;font-family:Calibri;-inkscape-font-specification:'Calibri Bold';fill:#ffffff"
         id="tspan2319">Use Encryption</tspan></tspan></text><text
     xml:space="preserve"
     style="font-style:normal;font-variant:normal;font-weight:300;font-size:18px;line-height:125%;font-family:'Calibri Light';text-align:start;letter-spacing:0px;word-spacing:0px;text-anchor:start;fill:#000000;fill-opacity:1;stroke:none"
     x="82.744141"
     y="393.33356"
     id="text2351"><tspan
       sodipodi:role="line"
       x="82.744141"
       y="393.33356"
       id="tspan2349"
       style="font-style:normal;font-variant:normal;font-weight:bold;font-stretch:normal;font-size:18px;font-family:Calibri;-inkscape-font-specification:'Calibri Bold';fill:#ffffff">Deploy DNS Filtering</tspan></text><g
     id="g2488"><g
       id="g2263"
       transform="translate(-1.2140503,-4)"><g
         id="g2242"><path
           d="M 606.33629,68.573922 H 596.09171 A 0.85371452,0.85371452 0 0 1 595.238,67.720213 v -8.537149 a 0.85371452,0.85371452 0 0 1 0.85371,-0.853708 h 10.24458 a 0.85371452,0.85371452 0 0 1 0.85371,0.853708 v 8.537149 a 0.85371452,0.85371452 0 0 1 -0.85371,0.853709 z"
           style="fill:#999999;stroke-width:0.853715"
           id="path376" /><path
           d="m 596.94543,68.573922 v -8.537137 a 0.85371452,0.85371452 0 0 1 0.85371,-0.853721 h -1.70743 a 0.85371452,0.85371452 0 0 0 -0.85371,0.853721 v 8.537137 a 0.85371452,0.85371452 0 0 0 0.85371,0.853709 h 1.70743 a 0.85371452,0.85371452 0 0 1 -0.85371,-0.853709 z"
           style="fill:#4d4d4d;stroke-width:0.853715"
           id="path378" /><path
           d="m 617.43458,73.696211 h -32.44116 a 0.85371452,0.85371452 0 0 1 -0.85371,-0.853708 5.9836849,5.9836849 0 0 1 5.976,-5.976011 h 22.19658 a 5.9836849,5.9836849 0 0 1 5.97601,5.976011 0.85371452,0.85371452 0 0 1 -0.85372,0.853708 z"
           style="fill:#b3b3b3;fill-opacity:1;stroke-width:0.853715"
           id="path380" /><path
           d="m 585.84714,72.842503 a 5.9836849,5.9836849 0 0 1 5.976,-5.976011 h -1.70743 a 5.9836849,5.9836849 0 0 0 -5.976,5.976011 0.85371452,0.85371452 0 0 0 0.85371,0.853708 h 1.70743 a 0.85371452,0.85371452 0 0 1 -0.85371,-0.853708 z"
           style="fill:#4d4d4d;fill-opacity:1;stroke-width:0.853715"
           id="path382" /><path
           d="m 624.2643,60.036785 h -46.10058 a 2.5611435,2.5611435 0 0 1 -2.56116,-2.561151 V 25.03448 a 2.5611435,2.5611435 0 0 1 2.56116,-2.561139 h 46.10058 a 2.5611435,2.5611435 0 0 1 2.56114,2.561139 v 32.441154 a 2.5611435,2.5611435 0 0 1 -2.56114,2.561151 z"
           style="fill:#ffffff;stroke-width:0.853715"
           id="path384" /><path
           d="M 577.30999,57.475634 V 25.03448 a 2.5611435,2.5611435 0 0 1 2.56114,-2.561139 h -1.70741 a 2.5611435,2.5611435 0 0 0 -2.56116,2.561139 v 32.441154 a 2.5611435,2.5611435 0 0 0 2.56116,2.561151 h 1.70741 a 2.5611435,2.5611435 0 0 1 -2.56114,-2.561151 z"
           style="fill:#b3b3b3;stroke-width:0.853715"
           id="path386" /><path
           d="m 624.2643,60.036785 h -46.10058 a 2.5611435,2.5611435 0 0 1 -2.56116,-2.561151 v -4.268568 h 51.22288 v 4.268568 a 2.5611435,2.5611435 0 0 1 -2.56114,2.561151 z"
           style="fill:#b3b3b3;fill-opacity:1;stroke-width:0.853715"
           id="path388" /><path
           d="m 577.30999,58.329356 v -5.12229 h -1.70743 v 5.12229 a 1.7074291,1.7074291 0 0 0 1.70743,1.707429 h 1.70743 a 1.7074291,1.7074291 0 0 1 -1.70743,-1.707429 z"
           style="fill:#808080;fill-opacity:1;stroke-width:0.853715"
           id="path390" /><rect
           height="1.7074292"
           style="fill:#ffffff;stroke-width:0.853715"
           width="1.7074292"
           x="600.36029"
           y="55.768211"
           id="rect392" /><path
           d="m 601.214,44.669917 a 8.5371452,8.5371452 0 1 1 8.53715,-8.537137 8.5465358,8.5465358 0 0 1 -8.53715,8.537137 z"
           style="fill:#666666;stroke-width:0.853715"
           id="path394" /><path
           d="m 602.92143,42.962487 a 8.5209242,8.5209242 0 0 1 -6.82033,-13.650033 8.5260469,8.5260469 0 1 0 11.93323,11.93321 8.4799463,8.4799463 0 0 1 -5.1129,1.716823 z"
           style="fill:#808080;stroke-width:0.853715"
           id="path396" /><path
           d="m 605.14706,35.417359 -5.17436,-3.368755 a 0.85371452,0.85371452 0 0 0 -1.31984,0.715408 v 6.783615 a 0.85371452,0.85371452 0 0 0 0.4482,0.75212 0.85371452,0.85371452 0 0 0 0.87591,-0.03932 l 5.17436,-3.410587 a 0.85371452,0.85371452 0 0 0 -0.004,-1.428275 z"
           style="fill:#b3b3b3;stroke-width:0.853715"
           id="path398" /><path
           d="m 605.14706,35.417359 v 0 l -3.46266,2.277711 a 0.85371452,0.85371452 0 0 1 -1.32411,-0.708581 v -4.686036 l -0.38759,-0.251849 a 0.85371452,0.85371452 0 0 0 -1.31984,0.715408 v 6.783615 a 0.85371452,0.85371452 0 0 0 0.4482,0.75212 0.85371452,0.85371452 0 0 0 0.87591,-0.03932 l 5.17436,-3.410587 a 0.85371452,0.85371452 0 0 0 -0.004,-1.428275 z"
           style="fill:#4d4d4d;stroke-width:0.853715"
           id="path400" /><polygon
           points="18,32 20,32 50,32 50,30 20,30 18,30 11,30 11,32 "
           style="fill:#4d4d4d"
           id="polygon402"
           transform="matrix(0.85371452,0,0,0.85371452,573.89514,20.765912)" /><polygon
           points="20,32 50,32 50,31 20,31 18,31 11,31 11,32 18,32 "
           style="fill:#666666"
           id="polygon404"
           transform="matrix(0.85371452,0,0,0.85371452,573.89514,20.765912)" /><path
           d="m 588.40828,48.938485 a 1.7074291,1.7074291 0 1 1 1.70743,-1.70743 1.7074291,1.7074291 0 0 1 -1.70743,1.70743 z"
           style="fill:#ffffff;stroke-width:0.853715"
           id="path406" /><path
           d="m 588.40828,46.377347 a 1.6843788,1.6843788 0 0 1 0.22539,-0.830663 1.6391319,1.6391319 0 0 0 -0.22539,-0.02313 1.7074291,1.7074291 0 1 0 1.48206,2.538092 1.7074291,1.7074291 0 0 1 -1.48206,-1.684371 z"
           style="fill:#e6e6e6;stroke-width:0.853715"
           id="path408" /></g><circle
         style="fill:none;fill-opacity:1;fill-rule:evenodd;stroke:#ffffff;stroke-width:3;stroke-linejoin:round;stroke-miterlimit:4;stroke-dasharray:none;paint-order:stroke fill markers"
         id="circle1660"
         cx="601.21405"
         cy="48.084782"
         r="40.927944" /></g><text
       xml:space="preserve"
       style="font-style:normal;font-variant:normal;font-weight:300;font-size:18px;line-height:125%;font-family:'Calibri Light';text-align:start;letter-spacing:0px;word-spacing:0px;text-anchor:start;fill:#000000;fill-opacity:1;stroke:none"
       x="599.65723"
       y="105.33356"
       id="text2385"><tspan
         sodipodi:role="line"
         x="599.65723"
         y="105.33356"
         style="font-style:normal;font-variant:normal;font-weight:bold;font-stretch:normal;font-size:18px;font-family:Calibri;-inkscape-font-specification:'Calibri Bold';text-align:center;text-anchor:middle;fill:#ffffff"
         id="tspan2424">Provide Cyber-Awarness Training to Employees</tspan></text></g><text
     xml:space="preserve"
     style="font-style:normal;font-variant:normal;font-weight:300;font-size:18px;line-height:125%;font-family:'Calibri Light';text-align:start;letter-spacing:0px;word-spacing:0px;text-anchor:start;fill:#000000;fill-opacity:1;stroke:none"
     x="889.64111"
     y="115.33356"
     id="text2434"><tspan
       sodipodi:role="line"
       x="889.64111"
       y="115.33356"
       id="tspan2432"
       style="font-style:normal;font-variant:normal;font-weight:bold;font-stretch:normal;font-size:18px;font-family:Calibri;-inkscape-font-specification:'Calibri Bold';fill:#ffffff">Use Personal Authentication Certificates</tspan></text><text
     xml:space="preserve"
     style="font-style:normal;font-variant:normal;font-weight:300;font-size:18px;line-height:125%;font-family:'Calibri Light';text-align:start;letter-spacing:0px;word-spacing:0px;text-anchor:start;fill:#000000;fill-opacity:1;stroke:none"
     x="966.98926"
     y="253.33356"
     id="text2444"><tspan
       sodipodi:role="line"
       x="966.98926"
       y="253.33356"
       id="tspan2442"
       style="font-style:normal;font-variant:normal;font-weight:bold;font-stretch:normal;font-size:18px;font-family:Calibri;-inkscape-font-specification:'Calibri Bold';fill:#ffffff">Protect Login Fields</tspan></text><text
     xml:space="preserve"
     style="font-style:normal;font-variant:normal;font-weight:300;font-size:18px;line-height:125%;font-family:'Calibri Light';text-align:start;letter-spacing:0px;word-spacing:0px;text-anchor:start;fill:#000000;fill-opacity:1;stroke:none"
     x="945.47803"
     y="393.33356"
     id="text2448"><tspan
       sodipodi:role="line"
       x="945.47803"
       y="393.33356"
       id="tspan2446"
       style="font-style:normal;font-variant:normal;font-weight:bold;font-stretch:normal;font-size:18px;font-family:Calibri;-inkscape-font-specification:'Calibri Bold';fill:#ffffff">Protect Internet Network</tspan></text><path
     style="fill:none;stroke:#ffffff;stroke-width:3;stroke-linecap:butt;stroke-linejoin:miter;stroke-miterlimit:4;stroke-dasharray:6,3;stroke-dashoffset:0;stroke-opacity:1"
     d="m 199.64698,49.497475 162.34726,-2.828427 2.87276,151.399362 74.09172,-1.29083"
     id="path2450" /><path
     style="fill:none;stroke:#ffffff;stroke-width:3;stroke-linecap:butt;stroke-linejoin:miter;stroke-miterlimit:4;stroke-dasharray:6,3;stroke-dashoffset:0;stroke-opacity:1"
     d="m 199.18973,199.40411 h 71.06143 v 39.59798 h 165.32662"
     id="path2452" /><path
     style="fill:none;stroke:#ffffff;stroke-width:3;stroke-linecap:butt;stroke-linejoin:miter;stroke-miterlimit:4;stroke-dasharray:6,3;stroke-dashoffset:0;stroke-opacity:1"
     d="M 197.24726,347.79603 H 321.56325 V 286.98485 H 440.16356"
     id="path2454" /><g
     id="g2119"
     transform="translate(-22.42793)"><g
       id="g580"
       transform="matrix(0.19107414,0,0,0.19107414,-287.40365,416.7272)"
       style="fill:#ffffff;stroke:#ffffff"><g
         id="g524"
         style="fill:#ffffff;stroke:#ffffff"
         transform="translate(2313.8966,-590.66681)">
	<path
   id="path35963"
   d="M 87.728,0 C 77.993,0 70.001,7.996 70.001,17.73 v 122.273 h -25 c -2.762,0.001 -5,2.241 -4.999,5.002 10e-4,1.325 0.527,2.596 1.463,3.533 L 120,227.073 v 57.93 c 0.001,2.762 2.24,5 5.001,5 1.081,0 2.133,-0.351 2.999,-1 l 40,-30 c 1.259,-0.944 2,-2.426 2,-4 v -27.93 l 78.535,-78.535 c 1.952,-1.953 1.951,-5.12 -0.002,-7.072 -0.937,-0.937 -2.208,-1.463 -3.533,-1.463 H 220 V 49.549 c 0,-1.262 -0.477,-2.477 -1.336,-3.402 L 177.302,1.6 C 176.356,0.581 175.029,0.001 173.638,0 Z m 0,10 h 77.729 v 39.547 c 0,2.761 2.239,5 5,5 h 39.545 v 85.457 h -130 V 17.73 c 0,-4.367 3.36,-7.73 7.726,-7.73 z m 87.729,4.307 28.078,30.24 h -28.078 z m -87.729,3.195 c -1.381,0 -2.5,1.119 -2.5,2.5 v 47.727 c -0.02,1.381 1.084,2.516 2.465,2.535 1.381,0.02 2.516,-1.084 2.535,-2.465 0,-0.024 0,-0.047 0,-0.071 V 22.502 h 19.773 c 1.381,0.02 2.516,-1.084 2.535,-2.465 0.02,-1.381 -1.084,-2.516 -2.465,-2.535 -0.024,0 -0.047,0 -0.071,0 z m 25.455,74.092 c -1.381,-0.02 -2.516,1.084 -2.535,2.465 -0.02,1.381 1.084,2.516 2.465,2.535 0.024,0 0.047,0 0.071,0 h 63.637 c 1.381,0.02 2.516,-1.084 2.535,-2.465 0.02,-1.381 -1.084,-2.516 -2.465,-2.535 -0.024,0 -0.047,0 -0.071,0 z m 0,23.816 c -1.381,-0.02 -2.516,1.084 -2.535,2.465 -0.02,1.381 1.084,2.516 2.465,2.535 0.024,0 0.047,0 0.071,0 h 63.637 c 1.381,0.02 2.516,-1.084 2.535,-2.465 0.02,-1.381 -1.084,-2.516 -2.465,-2.535 -0.024,0 -0.047,0 -0.071,0 z m -56.109,34.594 h 175.855 l -71.463,71.463 c -0.938,0.938 -1.465,2.21 -1.465,3.537 v 27.5 l -30,22.5 v -50 c 0,-1.327 -0.527,-2.599 -1.465,-3.537 z"
   style="fill:#ffffff;stroke:#ffffff" />
</g><g
         id="g526"
         style="fill:#ffffff;stroke:#ffffff">
</g><g
         id="g528"
         style="fill:#ffffff;stroke:#ffffff">
</g><g
         id="g530"
         style="fill:#ffffff;stroke:#ffffff">
</g><g
         id="g532"
         style="fill:#ffffff;stroke:#ffffff">
</g><g
         id="g534"
         style="fill:#ffffff;stroke:#ffffff">
</g><g
         id="g536"
         style="fill:#ffffff;stroke:#ffffff">
</g><g
         id="g538"
         style="fill:#ffffff;stroke:#ffffff">
</g><g
         id="g540"
         style="fill:#ffffff;stroke:#ffffff">
</g><g
         id="g542"
         style="fill:#ffffff;stroke:#ffffff">
</g><g
         id="g544"
         style="fill:#ffffff;stroke:#ffffff">
</g><g
         id="g546"
         style="fill:#ffffff;stroke:#ffffff">
</g><g
         id="g548"
         style="fill:#ffffff;stroke:#ffffff">
</g><g
         id="g550"
         style="fill:#ffffff;stroke:#ffffff">
</g><g
         id="g552"
         style="fill:#ffffff;stroke:#ffffff">
</g><g
         id="g554"
         style="fill:#ffffff;stroke:#ffffff">
</g></g><circle
       style="fill:none;fill-opacity:1;fill-rule:evenodd;stroke:#ffffff;stroke-width:3;stroke-linejoin:round;stroke-miterlimit:4;stroke-dasharray:none;paint-order:stroke fill markers"
       id="circle620"
       cx="182.42793"
       cy="331.57208"
       r="40.927944" /><circle
       style="fill:none;fill-opacity:1;fill-rule:evenodd;stroke:#ffffff;stroke-width:3;stroke-linejoin:round;stroke-miterlimit:4;stroke-dasharray:none;paint-order:stroke fill markers"
       id="circle656"
       cx="182.42793"
       cy="189.82843"
       r="40.927944" /><g
       id="g725"
       transform="matrix(-0.10825803,0,0,0.10825803,208.68142,161.47442)"
       style="fill:#ffffff"><g
         id="g668"
         style="fill:#ffffff">
	<path
   d="m 361.205,68.899 c -14.663,0 -28.447,5.71 -38.816,16.078 -21.402,21.403 -21.402,56.228 0,77.631 10.368,10.368 24.153,16.078 38.815,16.078 14.662,0 28.447,-5.71 38.816,-16.078 21.402,-21.403 21.402,-56.228 0,-77.631 C 389.652,74.609 375.867,68.899 361.205,68.899 Z m 17.602,72.495 c -4.702,4.702 -10.953,7.292 -17.603,7.292 -6.65,0 -12.901,-2.59 -17.603,-7.291 -9.706,-9.706 -9.706,-25.499 0,-35.205 4.702,-4.702 10.953,-7.291 17.603,-7.291 6.65,0 12.9,2.589 17.603,7.291 9.706,9.706 9.706,25.498 0,35.204 z"
   id="path664"
   style="fill:#ffffff" />
	<path
   d="M 441.961,43.036 C 414.21,15.284 377.311,0 338.064,0 298.816,0 261.918,15.284 234.167,43.036 191.941,85.262 179.676,148.215 202.102,202.734 l -201.848,201.85 -0.165,80.268 144.562,0.165 v -55.722 h 55.705 V 373.59 h 55.705 v -64.492 l 26.212,-26.212 c 17.615,7.203 36.698,10.976 55.799,10.976 39.244,0 76.14,-15.282 103.889,-43.032 57.289,-57.289 57.289,-150.505 0,-207.794 z m -21.213,186.581 c -22.083,22.083 -51.445,34.245 -82.676,34.245 -18.133,0 -36.237,-4.265 -52.353,-12.333 l -9.672,-4.842 -49.986,49.985 v 46.918 h -55.705 v 55.705 h -55.705 v 55.688 l -84.5,-0.096 0.078,-37.85 208.082,-208.087 -4.842,-9.672 C 210.897,154.191 219.702,99.927 255.38,64.249 277.466,42.163 306.83,30 338.064,30 c 31.234,0 60.598,12.163 82.684,34.249 45.592,45.592 45.592,119.776 0,165.368 z"
   id="path666"
   style="fill:#ffffff" />
</g><g
         id="g670"
         style="fill:#ffffff">
</g><g
         id="g672"
         style="fill:#ffffff">
</g><g
         id="g674"
         style="fill:#ffffff">
</g><g
         id="g676"
         style="fill:#ffffff">
</g><g
         id="g678"
         style="fill:#ffffff">
</g><g
         id="g680"
         style="fill:#ffffff">
</g><g
         id="g682"
         style="fill:#ffffff">
</g><g
         id="g684"
         style="fill:#ffffff">
</g><g
         id="g686"
         style="fill:#ffffff">
</g><g
         id="g688"
         style="fill:#ffffff">
</g><g
         id="g690"
         style="fill:#ffffff">
</g><g
         id="g692"
         style="fill:#ffffff">
</g><g
         id="g694"
         style="fill:#ffffff">
</g><g
         id="g696"
         style="fill:#ffffff">
</g><g
         id="g698"
         style="fill:#ffffff">
</g></g><circle
       style="fill:none;fill-opacity:1;fill-rule:evenodd;stroke:#ffffff;stroke-width:3;stroke-linejoin:round;stroke-miterlimit:4;stroke-dasharray:none;paint-order:stroke fill markers"
       id="circle624"
       cx="182.42793"
       cy="48.084782"
       r="40.927944" /><path
       d="m 162.19706,58.29702 c -8.39296,-8.39317 -8.3928,-22.04995 0,-30.44313 8.39317,-8.39316 22.04997,-8.39316 30.44298,0 7.12044,7.12047 8.19884,17.71042 3.23791,25.98002 0,0 -0.35632,0.59748 0.12493,1.07874 2.74537,2.74537 10.98249,10.98268 10.98249,10.98268 2.18602,2.18584 2.70661,5.24242 0.76805,7.18131 l -0.33378,0.33342 c -1.93872,1.93889 -4.99545,1.41867 -7.18131,-0.76734 0,0 -8.21967,-8.21988 -10.95979,-10.95961 -0.5041,-0.50433 -1.10179,-0.148 -1.10179,-0.148 -8.26925,4.9606 -18.85921,3.88238 -25.97969,-3.23809 z m 26.46846,-3.97433 c 6.20169,-6.20169 6.20153,-16.29243 0,-22.49412 -6.20168,-6.20153 -16.29241,-6.2017 -22.49394,0 -6.20169,6.20152 -6.20169,16.29243 0,22.49412 6.20169,6.20153 16.29242,6.20153 22.49394,0 z"
       id="path727"
       style="fill:#ffffff;stroke:#ffffff;stroke-width:0.170902" /></g><path
     style="fill:none;stroke:#ffffff;stroke-width:3;stroke-linecap:butt;stroke-linejoin:miter;stroke-miterlimit:4;stroke-dasharray:6, 3;stroke-dashoffset:0;stroke-opacity:1"
     d="m 590,107.53852 v 28.70352 h 20 V 178.5"
     id="path2456" /><path
     style="fill:none;stroke:#ffffff;stroke-width:3;stroke-linecap:butt;stroke-linejoin:miter;stroke-miterlimit:4;stroke-dasharray:6, 3;stroke-dashoffset:0;stroke-opacity:1"
     d="M 1000.4959,42.515188 838.14862,39.686761 835.27586,191.08612 761.18411,189.79529"
     id="path2458" /><path
     style="fill:none;stroke:#ffffff;stroke-width:3;stroke-linecap:butt;stroke-linejoin:miter;stroke-miterlimit:4;stroke-dasharray:6,3;stroke-dashoffset:0;stroke-opacity:1"
     d="M 997.6602,192.42182 H 926.63638 V 232.0198 H 761.39721"
     id="path2460" /><path
     style="fill:none;stroke:#ffffff;stroke-width:3;stroke-linecap:butt;stroke-linejoin:miter;stroke-miterlimit:4;stroke-dasharray:6, 3;stroke-dashoffset:0;stroke-opacity:1"
     d="M 998.8956,341.16729 H 877.39432 V 280.35611 H 761.47931"
     id="path2462" /><g
     id="g2289"
     transform="translate(-9.5217274e-8,88)"><text
       xml:space="preserve"
       style="font-style:normal;font-variant:normal;font-weight:400;font-size:14.6875px;line-height:0;font-family:Calibri;text-align:start;letter-spacing:0px;word-spacing:0px;text-anchor:start;fill:#ffffff;fill-opacity:1;stroke:#ffffff"
       x="604.07812"
       y="162.8385"
       id="text1848"><tspan
         sodipodi:role="line"
         x="604.07812"
         y="162.8385"
         id="tspan1846"
         style="line-height:125%;fill:#ffffff;stroke:#ffffff" /><tspan
         sodipodi:role="line"
         x="604.07812"
         y="196.4608"
         id="tspan1872"
         style="font-style:normal;font-variant:normal;font-weight:normal;font-stretch:normal;font-size:36px;line-height:96.42%;font-family:Algerian;-inkscape-font-specification:Algerian;text-align:center;letter-spacing:0px;word-spacing:0px;text-anchor:middle;fill:#ffffff;stroke:#ffffff"><tspan
           dx="0 0 0 0 0 0 0 0 0 0 0 0 0"
           dy="0 0 0 0 0 0 0 0 0 0 0 0 0"
           style="font-style:normal;font-variant:normal;font-weight:normal;font-stretch:normal;font-size:36px;line-height:96.42%;font-family:Algerian;-inkscape-font-specification:Algerian;text-align:center;letter-spacing:0px;word-spacing:0px;text-anchor:middle;fill:#ffffff;stroke:#ffffff"
           id="tspan1866">Cyber Attack </tspan></tspan><tspan
         sodipodi:role="line"
         x="604.07812"
         y="231.172"
         style="font-style:normal;font-variant:normal;font-weight:normal;font-stretch:normal;font-size:36px;line-height:96.42%;font-family:Algerian;-inkscape-font-specification:Algerian;text-align:center;letter-spacing:0px;word-spacing:0px;text-anchor:middle;fill:#ffffff;stroke:#ffffff"
         id="tspan2275">Preventions</tspan></text><g
       id="g2279"
       transform="translate(-60.857862,-63.886167)"><path
         style="fill:#000000;stroke:#000000;stroke-width:1.31494px;stroke-linecap:butt;stroke-linejoin:miter;stroke-opacity:1"
         d="m 482.18406,350.53727 h 357.03148 c 0,0 12.14393,17.08556 -16.3943,25.62834 l -328.31546,-1.51017 c 0,0 -21.42967,-8.45641 -12.32172,-24.11817 z"
         id="path2267"
         sodipodi:nodetypes="ccccc" /><rect
         style="fill:none;fill-opacity:1;fill-rule:evenodd;stroke:#022645;stroke-width:6.57467;stroke-miterlimit:4;stroke-dasharray:none;stroke-opacity:1"
         id="rect2265"
         width="327.88617"
         height="197.19586"
         x="496.9158"
         y="154.23615"
         ry="10.678476" /></g></g></g></svg>
